<?xml version="1.0" encoding="UTF-8" ?>
<!DOCTYPE svg PUBLIC "-//W3C//DTD SVG 1.1//EN" "http://www.w3.org/Graphics/SVG/1.1/DTD/svg11.dtd">
<svg width="270pt" height="81pt" viewBox="0 0 270 81" version="1.1" xmlns="http://www.w3.org/2000/svg">
<path fill="#fefefd" d=" M 0.00 0.00 L 270.00 0.00 L 270.00 81.00 L 0.00 81.00 L 0.00 0.00 Z" />
<path fill="#18207e" d=" M 46.88 27.33 C 51.21 20.11 57.88 12.62 66.98 12.60 C 113.31 12.52 159.64 12.58 205.97 12.56 C 224.99 12.67 244.03 12.35 263.05 12.72 L 262.84 13.82 C 256.26 14.68 249.59 13.68 242.97 13.98 C 193.33 14.17 143.67 14.00 94.02 14.11 C 87.07 14.29 79.80 13.17 73.10 15.48 C 63.92 20.02 59.40 29.82 55.27 38.63 C 59.16 38.11 63.30 38.06 66.82 40.04 C 67.86 36.23 64.54 34.16 61.32 33.69 C 63.04 30.30 65.15 27.14 67.51 24.17 C 71.40 25.35 75.13 27.96 76.36 32.01 C 76.82 34.69 76.75 37.69 75.06 39.97 C 70.69 45.94 62.45 47.53 55.50 46.59 C 58.98 54.50 63.10 62.78 70.57 67.65 C 74.76 70.56 80.07 70.48 84.96 70.66 C 143.00 70.63 201.04 70.71 259.08 70.62 C 260.70 70.81 262.96 70.02 263.87 71.92 C 198.25 72.11 132.63 71.92 67.01 72.02 C 58.03 71.88 51.13 64.78 46.88 57.51 C 42.52 63.46 36.92 69.82 28.92 69.96 C 22.24 69.99 15.13 71.05 8.81 68.37 C 1.55 64.74 0.54 53.91 6.41 48.58 C 9.45 45.57 13.94 45.24 17.99 45.46 C 24.94 45.64 31.91 45.04 38.83 45.79 C 39.90 43.69 39.67 41.45 38.95 39.29 C 33.01 40.13 27.01 39.51 21.03 39.66 C 16.52 39.52 11.38 40.51 7.61 37.37 C 0.91 32.71 0.87 21.27 7.85 16.84 C 11.97 13.88 17.24 14.62 22.00 14.54 C 26.57 14.64 31.48 13.95 35.64 16.31 C 40.46 18.72 43.74 23.11 46.88 27.33 Z" />
<path fill="#fefefd" d=" M 44.54 35.62 C 48.11 28.03 52.54 20.18 60.06 15.89 C 57.75 18.90 54.77 21.35 52.72 24.58 C 49.29 29.37 47.23 34.92 44.75 40.21 C 44.40 38.70 43.55 37.07 44.54 35.62 Z" />
<path fill="#fefefd" d=" M 50.87 30.89 C 54.09 25.00 58.20 19.15 64.23 15.88 C 58.39 21.36 54.21 28.20 50.63 35.31 C 50.22 33.85 49.95 32.22 50.87 30.89 Z" />
<path fill="#fefefd" d=" M 54.60 31.65 C 58.04 25.45 62.11 18.73 68.96 15.90 C 61.00 21.90 56.81 31.11 52.77 39.92 C 51.13 36.97 53.43 34.25 54.60 31.65 Z" />
<path fill="#fefefd" d=" M 5.24 22.44 C 6.33 19.90 8.74 18.37 10.99 16.96 C 8.86 19.93 6.30 23.08 6.64 26.98 C 6.23 31.01 8.82 34.31 11.02 37.38 C 5.33 35.12 2.62 27.93 5.24 22.44 Z" />
<path fill="#fefefd" d=" M 8.65 29.93 C 6.87 24.63 10.33 19.33 14.92 16.86 C 12.92 19.92 10.42 23.11 10.79 27.00 C 10.38 31.33 13.03 35.00 15.79 38.02 C 12.60 36.22 9.38 33.76 8.65 29.93 Z" />
<path fill="#fefefd" d=" M 12.43 26.08 C 12.47 21.91 15.70 18.86 19.00 16.83 C 16.90 19.87 14.38 23.07 14.69 27.01 C 14.32 31.36 17.07 34.92 19.78 37.97 C 15.25 35.88 11.70 31.28 12.43 26.08 Z" />
<path fill="#fefefd" d=" M 25.00 16.99 C 35.09 21.61 39.83 32.45 43.81 42.11 C 44.60 44.70 46.90 47.48 44.94 50.10 C 41.03 41.71 38.60 32.54 32.89 25.06 C 30.77 21.90 27.80 19.51 25.00 16.99 Z" />
<path fill="#fefefd" d=" M 20.36 35.71 C 14.53 31.36 15.13 20.85 22.00 17.84 C 30.56 21.48 34.44 30.80 38.51 38.54 C 32.51 37.63 25.51 39.79 20.36 35.71 Z" />
<path fill="#fefefd" d=" M 31.32 18.28 C 36.70 21.23 40.28 26.47 43.14 31.73 C 44.08 32.85 43.27 34.14 42.98 35.32 C 40.04 29.02 36.00 23.39 31.32 18.28 Z" />
<path fill="#fefefd" d=" M 34.99 18.01 C 39.87 20.45 43.20 25.03 45.97 29.58 C 45.62 29.90 44.91 30.55 44.56 30.87 C 42.30 25.95 38.63 21.93 34.99 18.01 Z" />
<path fill="#18207e" d=" M 103.87 22.86 C 108.18 22.71 112.50 22.87 116.81 22.71 C 116.81 23.10 116.80 23.89 116.80 24.28 C 113.41 24.18 109.59 24.45 107.24 27.24 C 103.83 31.24 101.15 35.80 97.97 39.99 C 106.54 43.36 108.48 53.41 114.55 59.40 C 116.09 60.95 120.17 59.15 120.56 61.21 C 117.17 62.54 112.48 64.63 109.41 61.64 C 103.88 56.15 101.11 48.61 96.15 42.67 C 95.02 44.40 93.71 46.06 92.93 47.99 C 92.57 52.21 93.00 56.46 92.56 60.68 C 94.35 60.79 96.48 60.24 97.82 61.83 C 92.88 62.21 87.93 62.02 82.98 62.06 C 81.77 62.24 80.73 61.74 79.92 60.89 C 82.10 60.42 84.99 61.33 86.45 59.20 C 87.58 56.97 87.14 54.38 87.23 51.98 C 87.07 43.32 87.45 34.64 87.06 25.99 C 85.70 23.28 81.98 25.01 79.77 23.32 C 83.48 22.52 87.29 22.82 91.05 22.76 C 93.45 22.81 96.05 22.44 98.20 23.79 C 96.46 24.47 93.66 23.81 92.97 26.03 C 92.54 31.79 92.80 37.59 92.91 43.37 C 97.50 37.25 101.63 30.81 106.29 24.74 C 105.35 24.27 104.55 23.65 103.87 22.86 Z" />
<path fill="#18207e" d=" M 120.37 23.40 L 120.91 22.94 C 126.61 22.61 132.33 22.80 138.04 22.91 C 136.70 25.38 133.13 23.37 131.62 25.60 C 131.10 33.72 131.56 41.89 131.39 50.02 C 131.28 53.78 132.05 58.37 135.75 60.26 C 140.43 62.34 146.75 60.71 149.22 56.05 C 152.11 51.20 150.83 45.37 151.10 40.04 C 150.96 35.07 152.22 29.92 150.64 25.10 C 149.17 23.75 146.81 24.59 144.99 24.25 C 145.13 23.93 145.43 23.29 145.57 22.97 C 150.09 22.58 154.65 22.74 159.17 23.00 C 157.85 25.09 153.90 23.41 153.60 26.09 C 152.97 33.71 153.23 41.36 153.15 48.99 C 153.20 53.43 151.46 58.11 147.90 60.92 C 142.54 64.78 134.26 64.20 129.77 59.24 C 127.56 56.73 126.34 53.42 126.03 50.11 C 125.82 42.10 126.26 34.07 125.83 26.07 C 125.33 23.29 121.51 25.37 120.37 23.40 Z" />
<path fill="#18207e" d=" M 160.65 24.00 C 162.29 22.22 164.84 22.91 166.98 22.76 C 173.28 22.87 179.81 22.33 185.86 24.45 C 189.25 25.68 192.76 28.92 191.59 32.88 C 190.33 37.11 185.63 38.39 181.86 39.44 C 185.93 40.23 190.36 40.56 193.76 43.20 C 198.20 46.49 198.80 53.86 194.66 57.64 C 190.51 61.50 184.45 62.14 179.02 62.05 C 172.87 61.89 166.69 62.39 160.56 61.75 C 161.66 60.40 163.46 60.78 164.97 60.56 C 166.90 60.84 167.58 58.54 167.35 57.04 C 167.30 47.01 167.41 36.97 167.30 26.93 C 167.29 23.38 162.94 24.59 160.65 24.00 Z" />
<path fill="#18207e" d=" M 201.02 23.00 C 206.87 22.48 212.75 22.95 218.61 22.78 L 218.47 24.19 C 216.61 24.33 214.68 24.25 212.90 24.91 C 212.01 27.85 212.50 30.98 212.40 34.00 C 212.55 42.47 212.12 50.97 212.59 59.43 C 214.14 61.39 216.99 60.42 219.14 60.84 C 218.39 61.82 217.28 62.20 216.07 62.05 C 211.37 62.03 206.65 62.15 201.95 61.97 C 201.50 61.73 200.59 61.25 200.13 61.02 C 202.31 60.30 206.99 61.72 206.94 58.12 C 206.96 47.46 207.21 36.76 206.81 26.11 C 206.52 22.92 201.26 25.87 201.02 23.00 Z" />
<path fill="#18207e" d=" M 222.10 23.14 C 227.90 22.42 233.76 22.94 239.59 22.79 L 239.58 24.10 C 238.09 24.54 235.49 23.92 235.16 26.02 C 234.68 32.11 235.39 38.25 234.69 44.34 C 239.27 37.68 243.55 30.75 248.90 24.67 C 248.14 24.23 246.63 23.37 245.88 22.93 C 250.41 22.71 254.96 22.70 259.50 22.95 C 257.50 25.60 253.40 23.56 251.03 25.88 C 246.51 29.78 243.83 35.34 240.23 40.03 C 248.82 43.36 250.66 53.53 256.81 59.47 C 258.79 60.43 261.10 60.15 263.23 60.52 C 259.88 63.01 254.12 64.71 251.00 61.04 C 245.89 55.59 243.23 48.36 238.30 42.76 C 237.21 44.47 235.87 46.06 235.12 47.96 C 234.79 52.20 235.26 56.46 234.74 60.69 C 236.53 60.75 238.60 60.31 239.98 61.82 C 234.03 61.96 227.94 62.59 222.06 61.53 C 224.41 59.87 228.91 61.52 229.32 57.60 C 229.67 46.84 229.38 36.06 229.45 25.30 C 227.11 24.10 224.19 24.86 222.10 23.14 Z" />
<path fill="#fefefd" d=" M 171.45 25.09 C 176.10 25.22 181.58 24.58 185.20 28.17 C 186.37 30.89 186.31 34.77 183.53 36.49 C 180.92 38.58 177.45 38.73 174.26 38.75 C 174.27 39.24 174.28 40.23 174.29 40.72 C 179.19 40.86 184.70 41.02 188.62 44.34 C 192.83 47.96 192.51 55.54 187.57 58.35 C 182.72 60.63 177.20 59.43 172.05 59.83 C 173.68 53.02 172.59 45.96 172.89 39.03 C 172.62 34.38 173.85 29.36 171.45 25.09 Z" />
<path fill="#fefefd" d=" M 68.09 26.15 C 71.70 27.59 75.30 30.78 74.85 35.03 C 75.12 37.58 73.13 39.38 71.68 41.19 C 73.49 36.43 72.18 30.27 66.94 28.46 C 67.32 27.69 67.70 26.92 68.09 26.15 Z" />
<path fill="#fefefd" d=" M 63.95 32.42 C 65.28 28.20 69.79 31.55 70.50 34.43 C 72.01 37.81 69.45 40.95 67.13 43.13 C 67.76 40.55 69.42 37.65 67.73 35.13 C 67.02 33.64 65.21 33.26 63.95 32.42 Z" />
<path fill="#fefefd" d=" M 48.01 35.55 C 50.48 36.52 50.69 39.44 51.67 41.55 C 55.33 51.81 60.41 61.90 68.88 69.03 C 63.34 66.17 59.16 61.34 56.17 55.94 C 52.63 49.54 49.16 42.84 48.01 35.55 Z" />
<path fill="#fefefd" d=" M 55.04 39.05 C 58.66 39.82 62.09 41.38 65.82 41.57 C 62.99 44.66 58.83 45.00 55.12 46.31 C 54.05 43.95 53.93 41.42 55.04 39.05 Z" />
<path fill="#fefefd" d=" M 46.34 45.20 C 46.21 43.33 45.43 40.80 47.59 39.77 C 47.45 41.58 48.63 44.33 46.34 45.20 Z" />
<path fill="#fefefd" d=" M 48.52 46.58 C 48.87 46.36 49.56 45.93 49.91 45.71 C 49.83 49.47 47.63 52.62 45.77 55.72 C 43.00 60.23 39.40 64.31 34.84 67.06 C 37.32 63.77 40.52 61.05 42.63 57.48 C 45.00 54.07 46.44 50.13 48.52 46.58 Z" />
<path fill="#fefefd" d=" M 12.37 58.01 C 11.94 53.11 15.62 49.25 19.61 47.04 C 17.07 50.18 14.24 53.69 14.69 58.01 C 14.37 61.86 17.05 64.91 19.08 67.88 C 15.57 65.77 12.16 62.44 12.37 58.01 Z" />
<path fill="#fefefd" d=" M 18.29 63.71 C 14.15 58.45 16.94 49.98 23.07 47.70 C 28.07 46.31 33.31 47.42 38.38 46.61 C 34.70 53.95 30.88 62.00 23.51 66.31 C 21.38 67.71 19.53 65.13 18.29 63.71 Z" />
<path fill="#fefefd" d=" M 38.80 49.74 C 39.62 48.28 39.93 46.31 41.77 45.71 C 41.85 48.97 39.95 51.69 38.42 54.40 C 35.40 59.51 31.58 64.56 26.03 67.07 C 31.49 62.30 35.89 56.39 38.80 49.74 Z" />
<path fill="#fefefd" d=" M 9.43 66.54 C 1.83 62.89 2.98 50.41 10.91 47.93 C 8.54 50.76 6.27 54.09 6.64 57.98 C 6.39 61.12 8.35 63.74 9.43 66.54 Z" />
<path fill="#fefefd" d=" M 8.85 61.16 C 6.84 55.91 9.91 49.91 14.90 47.70 C 12.67 50.69 10.41 54.01 10.78 57.95 C 10.44 61.79 12.96 64.84 15.00 67.79 C 12.43 66.16 9.69 64.28 8.85 61.16 Z" />
<path fill="#fefefd" d=" M 50.72 49.71 C 54.26 56.93 58.57 63.91 64.92 69.01 C 58.38 65.83 53.88 59.73 50.60 53.44 C 49.84 52.26 50.48 50.93 50.72 49.71 Z" />
<path fill="#fefefd" d=" M 29.20 67.96 C 35.11 62.94 39.63 56.60 43.04 49.66 C 44.69 52.40 42.03 54.73 40.82 56.98 C 37.99 61.62 33.87 65.27 29.20 67.96 Z" />
<path fill="#fefefd" d=" M 48.43 56.55 C 48.01 55.85 47.77 53.22 49.16 54.58 C 52.06 59.80 55.93 64.33 59.85 68.80 C 55.16 65.68 51.07 61.56 48.43 56.55 Z" />
<path fill="#fefefd" d=" M 9.43 66.54 C 10.06 66.89 10.06 66.89 9.43 66.54 Z" />
</svg>
